<?xml version="1.0" encoding="utf-8"?>
<!-- Generator: Adobe Illustrator 23.0.4, SVG Export Plug-In . SVG Version: 6.00 Build 0)  -->
<svg version="1.1" id="Layer_1" xmlns="http://www.w3.org/2000/svg" xmlns:xlink="http://www.w3.org/1999/xlink" x="0px" y="0px"
	 viewBox="0 0 360 90" style="enable-background:new 0 0 360 90;" xml:space="preserve">
<style type="text/css">
	.st0{fill:#FFFFFF;}
</style>
<g>
	<path class="st0" d="M110.3,44.8c0.3-0.6,0.4-1.3,0.2-1.9c-0.4-1.2-1.2-1.8-2.6-1.8c-0.9,0-1.9,0.2-2.8,0.5
		c-0.3,0.1-0.6,0.2-0.9,0.4c-0.3,0.1-0.6,0.2-0.8,0.3c-0.1,0-0.1,0-0.2,0s-0.1,0-0.2-0.1s-0.1-0.1-0.1-0.2s0-0.1,0.1-0.2
		c0,0,0.1-0.1,0.2-0.2c0.6-0.4,1.6-1.1,3.2-2.1c1.6-1.1,3.2-2.2,4.8-3.3s2.8-2,3.5-2.6c0.9-0.8,2-1.8,3.2-3s2.2-2.3,3-3.2
		c0.5-0.6,0.9-1.3,1.2-2c0.3-0.7,0.3-1.3,0-1.9c-0.4-0.8-1-1.1-1.9-0.9c-0.5,0.1-1.1,0.4-1.6,0.6c-1.3,0.7-2.5,1.6-3.7,2.6
		c-1.7,1.5-3.3,3.1-4.9,4.8c-3.9,4.4-7.7,9-11.2,13.7c-0.1,0.2-0.2,0.3-0.3,0.5c-0.4,0.2-0.9,0.5-1.6,0.8c-1.8,0.8-3.9,1.6-6.3,2.3
		c-2.6,0.6-4.4,1-5.3,1c-0.4,0-0.7,0-1.1-0.1c-0.3-0.1-0.5-0.3-0.5-0.7c0-0.3,0.2-0.7,0.6-1.3c0.1-0.2,0.3-0.5,0.7-0.8
		c0.7-0.6,1.1-0.9,1.3-1h0.1c0.3,0.2,0.7,0.3,1.2,0.3s1.1-0.1,1.9-0.2c0.6-0.2,1.1-0.3,1.5-0.5c0.5-0.2,1.1-0.5,1.6-0.8
		c0.4-0.3,0.6-0.6,0.6-1v-0.1c0-0.3-0.2-0.7-0.4-1.1c-0.2-0.3-0.5-0.4-0.7-0.5c-0.3-0.1-0.5-0.2-0.8-0.2c-1.2,0-2.6,0.5-4.3,1.3
		c-0.8,0.4-1.5,1-2.3,1.6c-0.4,0.3-0.7,0.6-0.9,0.9c-0.3,0.3-0.5,0.5-0.7,0.8c-1.5,1.2-3,2.3-4.5,3.3c-1.7,1.1-3.5,2.1-5.4,3.1
		c-0.8,0.4-1.6,0.7-2.4,1c-0.3,0.1-0.6,0.1-0.9,0c-0.1,0-0.1,0-0.1,0c-0.1,0-0.1,0-0.2-0.1s-0.1-0.1-0.1-0.2c0-0.3,0-0.5,0.1-0.8
		c0.3-1.2,0.8-2.3,1.4-3.3c1-1.7,2.1-3.4,3.3-5c0.3-0.4,0.7-0.8,1.2-1.1c2.3-1.5,4.5-3.1,6.8-4.7c3.3-2.3,6.3-5,9.1-7.8
		c0.9-0.9,1.6-1.8,2.3-2.8c0.5-0.8,0.4-1.5-0.2-2.2c-0.3-0.4-0.8-0.5-1.3-0.4c-0.8,0.2-1.5,0.6-2.2,1c-1.9,1.1-3.7,2.5-5.3,3.9
		c-1.9,1.6-3.7,3.3-5.3,5.1c-1.7,1.8-3.3,3.7-4.9,5.6c-0.1,0.1-0.2,0.3-0.3,0.4c-0.3,0.5-0.7,0.9-1.2,1.2c-0.1,0.1-0.2,0.1-0.2,0.2
		s-0.1,0.2-0.1,0.3c-0.1,0.5-0.4,0.9-0.7,1.3c-0.1,0.2-0.2,0.3-0.3,0.5c-0.1,0.1-0.2,0.3-0.2,0.4c-0.3,0.1-1.1,0.5-2.4,1.2
		c-1.8,0.8-3.9,1.6-6.3,2.3c-2.6,0.6-4.4,1-5.3,1c-0.4,0-0.7,0-1-0.1S56,48.5,56,48.1c0-0.3,0.2-0.7,0.6-1.3
		c0.1-0.2,0.3-0.5,0.7-0.8c0.7-0.6,1.1-0.9,1.3-1h0.1c0.3,0.2,0.7,0.3,1.2,0.3s1.1-0.1,1.9-0.2c0.6-0.2,1.1-0.3,1.5-0.5
		c0.5-0.2,1.1-0.5,1.6-0.8c0.4-0.3,0.6-0.6,0.6-1v-0.1c0-0.3-0.2-0.7-0.4-1.1c-0.2-0.3-0.5-0.4-0.7-0.5c-0.3-0.1-0.5-0.2-0.8-0.2
		c-1.2,0-2.6,0.5-4.3,1.3c-0.8,0.4-1.5,1-2.3,1.6c-0.4,0.3-0.7,0.6-0.9,0.9l0,0c-4.9,2.3-9.4,4.3-14.1,6s-9.5,3-14.3,3.9
		c-2.5,0.5-5,0.7-7.6,0.6c-1.1-0.1-2.1-0.3-3.2-0.6c-0.4-0.2-0.9-0.3-1.3-0.6c-0.9-0.5-1.2-1.2-1.2-2.1c0-0.5,0.1-0.9,0.2-1.4
		c0.4-1.5,1-2.9,1.9-4.2c1-1.4,2-2.7,3.2-3.9c4.2-4.5,9-8.2,14.3-11.3c3.3-2,6.8-3.5,10.4-4.8c1.6-0.5,3.2-0.9,4.9-1.1
		c0.4-0.1,0.9-0.1,1.3-0.1c0.4,0,0.9,0.1,1.3,0.2c0,0,0.1,0,0.2,0.1c0.1,0,0.1,0,0.2,0c0.2,0.1,0.3,0.2,0.5,0.4s0.2,0.4,0.2,0.6
		c-0.1,1-0.3,2-0.8,2.9c-0.6,1.1-1.4,2.1-2.2,3.1c-0.2,0.2-0.4,0.5-0.6,0.7c-0.2,0.3-0.5,0.6-0.7,0.8s-0.2,0.5,0,0.8
		c0.1,0.2,0.2,0.3,0.4,0.5s0.3,0.2,0.5,0.1h0.1c0.1,0,0.2-0.1,0.2-0.2c1.8-1.5,3.1-3.3,4-5.4c0.2-0.4,0.3-0.7,0.3-1.1v-0.1
		c0.3-1.4-0.1-2.6-1.1-3.7c-0.8-0.8-1.8-1.2-2.9-1.2c-0.8,0-1.6,0-2.4,0.1c-1.4,0.2-2.7,0.5-4,0.9C42.3,25,41,25.5,39.7,26
		c-6,2.5-11.5,5.9-16.5,10.2c-1.1,1-2.3,2-3.3,3s-2.1,2.2-3.1,3.3s-1.8,2.3-2.5,3.6c-0.3,0.6-0.6,1.2-0.8,1.8s-0.4,1.3-0.4,2
		c-0.2,2.4,0.7,4.3,2.8,5.6c1,0.7,2.2,1.1,3.4,1.2c0.3,0,0.6,0.1,0.9,0.1c0.6,0.1,1.2,0.1,1.8,0.2s1.2,0,1.7-0.1
		c1.8,0,3.5-0.2,5.1-0.5c1.7-0.3,3.3-0.7,4.9-1.1c1.5-0.4,3.8-1.2,6.7-2.2s5.9-2.3,8.9-3.8c2-0.9,3.7-1.8,5.1-2.7
		c0,0.2-0.1,0.3-0.1,0.5l0,0c0,0.5,0.2,1.1,0.5,1.6c0.2,0.3,0.4,0.6,0.7,0.8c0.5,0.4,1.3,0.7,2.3,0.7h0.1c0.6,0,1.3-0.1,2.1-0.2
		c0.2,0,0.9-0.2,2.2-0.5c0.9-0.3,1.8-0.6,2.6-0.9c2-0.8,3.8-1.6,5.3-2.6c-0.1,0.1-0.2,0.3-0.3,0.4c-0.6,1-1.1,2.1-1.5,3.3
		c-0.2,0.6-0.3,1.3-0.3,2c0,0.5,0.1,1,0.4,1.5c0.4,0.8,1.1,1.2,1.9,1.2c0.6,0,1.2-0.1,1.7-0.3c0.2-0.1,0.4-0.2,0.7-0.3
		c0.3-0.1,0.7-0.2,1-0.4c3.1-1.6,6-3.5,8.6-5.8h0.1c0,0,0,0,0.1,0c0.1,0.5,0.2,0.9,0.5,1.3c0.2,0.3,0.4,0.6,0.7,0.8
		c0.5,0.4,1.3,0.7,2.3,0.7h0c0.6,0,1.3-0.1,2.1-0.2c0.2,0,0.9-0.2,2.2-0.5c0.9-0.3,1.8-0.6,2.6-0.9c1.5-0.6,2.8-1.2,4.1-1.9
		c-1.2,1.8-2.4,3.6-3.6,5.4c-0.3,0.5-0.2,0.8,0.3,0.9c0.5,0.1,1-0.1,1.4-0.7c0.4-0.5,0.7-1,1.1-1.6c0.2-0.4,0.5-0.6,0.7-0.7
		s0.5-0.1,0.8,0.1c0.4,0.1,0.9,0.2,1.3,0.3c0.4,0,0.9,0.1,1.3,0.1c0,0,0,0,0.1,0c0.6,0,1.1,0,1.7-0.1s1.1-0.2,1.6-0.4
		c1.9-0.7,3.5-1.7,5-3.2C109.4,46.3,109.9,45.6,110.3,44.8z M107.2,36.9C107.2,36.8,107.2,36.8,107.2,36.9c0.1-0.2,0.2-0.4,0.3-0.5
		c0.4-0.5,0.9-1,1.3-1.5c1.3-1.5,2.7-3,4.1-4.6c1.5-1.6,3.1-3,4.8-4.3c0.8-0.6,1.7-1.1,2.6-1.5c0.1,0,0.1,0,0.2,0s0.1,0,0.2,0.1
		c0,0,0.1,0.1,0.1,0.2s0,0.1-0.1,0.2l0,0c-0.3,0.5-0.6,0.9-0.9,1.4c-1.2,1.6-2.5,3.1-4,4.4c-2.5,2.2-5,4.2-7.7,6.1
		c-0.1,0.1-0.2,0.2-0.4,0.2c-0.1,0-0.1,0.1-0.2,0.1c0,0,0,0-0.1,0s-0.1,0-0.1-0.1s0-0.1,0-0.1L107.2,36.9z M88.6,43.2
		c1.4-0.6,2.3-0.9,2.8-0.9c0.1,0,0.2,0,0.2,0.1s-0.1,0.3-0.4,0.5c-0.2,0.2-0.7,0.4-1.2,0.6c-1.1,0.4-1.9,0.6-2.3,0.6
		c-0.1,0-0.2,0-0.2-0.1C87.5,43.8,87.9,43.5,88.6,43.2z M80.1,36.5C80.1,36.5,80.1,36.4,80.1,36.5c0.1-0.2,0.2-0.2,0.2-0.3
		c2.6-2.9,5.6-5.5,8.7-7.9c0.3-0.2,0.7-0.4,1-0.6c0.1-0.1,0.2-0.1,0.4-0.2c0,0,0,0,0.1,0s0.1,0,0.1,0s0.1,0,0.1,0.1s0,0,0,0.1
		c-0.1,0.1-0.1,0.2-0.2,0.4c-3,3.2-6.3,6.1-10,8.5c-0.1,0-0.1,0-0.2,0C80.3,36.6,80.3,36.6,80.1,36.5C80,36.8,79.9,36.7,80.1,36.5z
		 M60.5,43.2c1.4-0.6,2.3-0.9,2.8-0.9c0.1,0,0.2,0,0.2,0.1s-0.1,0.3-0.4,0.5c-0.2,0.2-0.7,0.4-1.2,0.6c-1.1,0.4-1.9,0.6-2.3,0.6
		c-0.1,0-0.2,0-0.2-0.1C59.4,43.8,59.8,43.5,60.5,43.2z M106.7,46.1c-0.7,0.6-1.5,1.1-2.3,1.5c-1.8,1-3.6,1.4-5.3,1.4
		c-0.1,0-0.1,0-0.2,0c-0.2,0-0.5-0.1-0.8-0.2c-0.1,0-0.2-0.2-0.1-0.3c0.3-0.7,0.8-1.2,1.3-1.6c1.2-0.9,2.3-1.7,3.6-2.3
		s2.5-1.2,3.9-1.6c0.7-0.2,1.3-0.2,2-0.2c0.1,0,0.2,0.1,0.2,0.2c0.1,0.1,0.1,0.2,0,0.4c0,0-0.1,0.1-0.1,0.2
		c-0.1,0.2-0.2,0.4-0.3,0.6C108.1,44.9,107.5,45.6,106.7,46.1z"/>
	<path class="st0" d="M122.1,44c0.1-0.2,0.2-0.3,0.3-0.5c0.1,0,0.1-0.1,0.1-0.2c0.1-0.2,0.3-0.4,0.4-0.6c0.1-0.3,0.1-0.6,0-0.9
		c-0.2-0.4-0.4-0.7-0.8-0.9c-0.3-0.2-0.7-0.2-1.1,0h-0.1c-0.4,0.2-0.7,0.3-1.1,0.5c-1.2,0.8-2.5,1.6-3.7,2.4c-0.3,0.2-0.7,0.5-1,0.7
		c-0.2,0.2-0.4,0.3-0.7,0.5l0,0h-0.1h-0.1c-0.2,0-0.2,0-0.1-0.2s0.3-0.4,0.4-0.7c0.1-0.2,0.2-0.4,0.3-0.6c0.2-0.2,0.3-0.5,0.5-0.7
		c0.4-0.7,0.8-1.3,1.2-1.9c0.1-0.2,0.2-0.5,0.1-0.7s-0.3-0.4-0.5-0.6c-0.1,0-0.1,0-0.2-0.1c-0.1,0-0.1,0-0.2,0
		c-0.2,0.1-0.3,0.2-0.4,0.4c-2.4,3.3-4.8,6.7-7.2,10c-0.2,0.3-0.4,0.6-0.6,0.9c-0.2,0.4-0.1,0.8,0.2,1.2c0.2,0.2,0.3,0.3,0.5,0.3
		s0.4,0,0.5-0.1c0.5-0.5,1-0.9,1.5-1.4c2.6-2.5,5.4-4.7,8.3-6.7c0.2-0.1,0.3-0.2,0.5-0.2c0.1,0,0.1-0.1,0.2-0.1s0.2,0,0.2,0.1
		c-0.1,0.1-0.1,0.3-0.2,0.4c-0.1,0.2-0.1,0.4-0.2,0.7c-0.1,0.2-0.1,0.4,0,0.6c0.1,0.3,0.2,0.6,0.4,0.9c0.2,0.3,0.4,0.5,0.7,0.7
		c0.2,0.1,0.4,0.1,0.6,0.1h0.1c0.1,0,0.2,0,0.2-0.1s0.1-0.2,0-0.3c0,0,0-0.1-0.1-0.1c0-0.1-0.1-0.2-0.2-0.2
		c-0.4-0.4-0.4-0.8-0.2-1.2C121.3,45.1,121.7,44.6,122.1,44z"/>
	<path class="st0" d="M159.6,37.2c0,0.2,0.1,0.5,0.3,0.6c0.1,0,0.1,0.1,0.2,0.1c0.1,0,0.1,0,0.2,0.1c0.2-0.1,0.4-0.2,0.6-0.3
		c0.6-0.3,1.1-0.6,1.7-0.9c0.1,0,0.1-0.1,0.1-0.1c0-0.1,0.1-0.1,0.1-0.2c0.1-0.3,0-0.7-0.3-0.9c-0.2-0.3-0.6-0.3-0.9-0.2
		c-0.7,0.3-1.3,0.7-1.8,1.2C159.6,36.7,159.6,36.9,159.6,37.2z"/>
	<path class="st0" d="M203,44.1c-4,2.4-6.4,3.8-7.2,4.2c-0.5,0.2-0.8,0.4-1,0.5S194.3,49,194,49c-0.1,0-0.2,0.1-0.3,0.1
		s-0.2,0-0.2-0.2c0,0,0-0.1,0.1-0.2c0.1-0.2,0.1-0.4,0.2-0.5c1.1-1.9,2.2-3.8,3.1-5.8c0.1-0.3,0.3-0.6,0.3-0.9c0-0.1,0-0.2,0-0.3
		s-0.1-0.2-0.1-0.3c-0.2-0.3-0.5-0.5-0.8-0.8c-0.1-0.1-0.2-0.2-0.4-0.2c-0.1,0-0.3,0-0.4,0.1c-0.3,0.3-0.6,0.6-0.9,0.9
		c-1.4,1.4-2.8,2.7-4.3,3.9s-3.1,2.3-4.9,3.3c-0.8,0.4-1.7,0.8-2.5,1.2h-0.1c-0.3,0.1-0.6,0.2-0.9,0.3c-0.3,0.1-0.7,0-1.1-0.1
		c-0.2-0.3-0.2-0.6-0.2-0.9c0.1-0.3,0.1-0.5,0.3-0.7c0.1-0.2,0.2-0.4,0.2-0.5c0,0,0-0.1,0.1-0.1l0,0c1.3-2.1,3.1-3.6,5.2-4.7
		c0.4-0.2,0.8-0.3,1.2-0.5c0.6-0.1,1.1-0.2,1.7-0.2s1.1,0.2,1.7,0.6c0,0,0,0,0.1,0s0.1,0,0.1,0s0,0,0.1,0l0,0l0.1-0.1v-0.1
		c-0.1-0.2-0.1-0.4-0.3-0.6c-0.8-0.8-1.6-1.2-2.6-1.3c-0.8-0.1-1.6,0-2.3,0.2c-2.1,0.8-3.8,2-5.2,3.6c-0.2,0.1-0.5,0.2-0.7,0.3
		c-0.8,0.4-1.6,0.9-2.7,1.5c-1,0.6-1.8,1-2.2,1.2c-0.1,0-0.2,0-0.2,0l-0.1-0.2c0,0,0-0.2,0-0.3v-0.1c0.1-0.5,0.1-1-0.1-1.5
		c-0.2-0.6-0.6-1.1-1.1-1.4s-1.1-0.3-1.7-0.2c-0.8,0.2-1.5,0.5-2.2,1c-0.5,0.3-0.9,0.5-1.4,0.8s-0.9,0.6-1.4,0.8
		c-0.2,0.1-0.5,0.2-0.7,0.3c0,0,0,0-0.1,0s-0.1,0-0.1,0s0,0-0.1,0s0,0-0.1-0.1c0-0.1,0.1-0.1,0.1-0.2c0.1-0.2,0.2-0.5,0.4-0.7
		c0.3-0.4,0.5-0.7,0.7-0.9c0.2-0.3,0.4-0.5,0.6-0.8c0.2-0.3,0.6-0.7,0.9-1.2c0.1-0.1,0.1-0.1,0.1-0.2c0.2-0.3,0.4-0.5,0.5-0.8
		s0-0.6-0.2-0.9c-0.1-0.1-0.3-0.2-0.5-0.3c-0.2,0-0.4,0-0.5,0.1s-0.2,0.2-0.2,0.2l-0.1,0.1c0,0,0,0-0.1,0.1s0.2,0.2,0.1,0.2
		s-0.1,0.1-0.2,0.2c-0.9,1.2-1.8,2.4-2.7,3.5c-0.5,0.2-1,0.5-1.6,0.8c-1.1,0.6-2.4,1.2-3.9,1.8s-3,1.2-4.6,1.7
		c-0.7,0.2-1.4,0.4-2.1,0.5c-0.2,0-0.4,0-0.6,0c-0.1,0-0.1,0-0.2,0c-0.1,0-0.2,0-0.2-0.1s-0.1-0.2-0.1-0.2c0.2-0.6,0.5-1.1,0.8-1.5
		c0.3-0.5,0.7-0.9,1-1.3c0.1,0,0.1-0.1,0.1-0.2c1.1-1.3,2.3-2.6,3.5-3.9c0.4-0.5,0.4-0.9-0.1-1.3c-0.1-0.1-0.2-0.1-0.4-0.1
		s-0.3,0-0.4,0.1c-0.1,0-0.1,0.1-0.1,0.1c-0.2,0.1-0.4,0.2-0.5,0.4c-1.1,1-2.1,2.1-3.1,3.3c-0.1,0-0.2,0.1-0.4,0.2
		c-1,0.6-2.2,1.2-3.7,1.9s-2.9,1.3-4.4,1.8s-2.7,0.8-3.6,0.9c-0.1,0-0.3,0-0.4-0.2s-0.1-0.2-0.1-0.3c0.1-0.2,0.2-0.4,0.2-0.5
		c0.2-0.5,0.5-1,0.8-1.4c0.7-1.1,1.5-2.2,2.4-3.2c1.6-1.8,3.1-3.6,4.7-5.4c0.2-0.3,0.5-0.5,0.7-0.8c0.5-0.5,0.9-1,1.4-1.5
		c0.3-0.3,0.5-0.5,0.8-0.8c0.3-0.4,0.8-0.5,1.2-0.5s0.8,0,1.1,0s0.6,0,0.9,0c0.6,0,1.2,0,1.8,0c1,0,2,0,3-0.1c0.2,0,0.4-0.1,0.6-0.1
		c0,0,0.1-0.1,0.1-0.2s0-0.1,0-0.2c-0.2-0.5-0.5-0.8-1-0.9c-0.3,0-0.7-0.1-1,0c-0.6,0-1.2,0-1.7,0.1c-0.4,0-0.7,0-1.1,0h-0.1
		c-0.4,0-0.8,0-1.1,0c-0.1,0-0.1,0-0.1-0.1s-0.1-0.1-0.1-0.1v-0.1v-0.1c0,0,0.1-0.1,0.1-0.2c0.1-0.2,0.3-0.4,0.5-0.6
		c1.4-1.3,2.9-2.7,4.3-4c0.4-0.4,0.8-0.7,1.1-1.1c0.1-0.1,0.2-0.2,0.4-0.3c0.2-0.2,0.5-0.4,0.7-0.6s0.2-0.5,0.1-0.8
		c-0.1-0.3-0.3-0.4-0.5-0.5s-0.4,0-0.6,0.1c-0.3,0.2-0.7,0.5-1,0.7c-2.4,2-4.7,4-6.9,6.2c-0.1,0.1-0.2,0.2-0.3,0.3
		c-0.3,0.3-0.6,0.6-0.9,0.8c-0.2,0.2-0.6,0.4-0.9,0.4c-0.1,0-0.2,0-0.4,0c-0.1,0-0.3,0-0.4,0c-0.5,0-1,0.1-1.4,0.1
		c-1.7,0.1-3.4,0.1-5.2,0.2c-0.3,0-0.5,0.1-0.8,0.2c-0.1,0-0.1,0-0.2,0c-0.1,0-0.2,0.1-0.1,0.3c0.1,0.5,0.4,0.7,0.8,0.8
		c0.8,0,1.5,0.1,2.3,0.1c0.3,0,0.6,0,0.9,0l0,0c0.1,0,0.3,0,0.4,0c0.8,0,1.6,0,2.4,0c0,0,0,0,0.1,0s0.1,0,0.1,0l0,0l0,0
		c0,0.1,0,0.1,0,0.2c0,0.1,0,0.1,0,0.1c-0.2,0.3-0.5,0.6-0.8,0.9c0,0,0,0-0.1,0c-0.5,0.5-0.9,1.1-1.4,1.6c-1.1,1.2-2.1,2.3-3.1,3.5
		c-0.8,0.9-1.5,1.9-2.2,2.8c-0.4,0.2-1.4,0.8-2.9,2c-1.6,1.3-3.9,2.6-6.8,4c-0.1,0-0.1,0-0.2,0c-0.1,0-0.1-0.1-0.1-0.2
		c0.1-0.3,0.2-0.5,0.3-0.8c0.1-0.2,0.3-0.5,0.4-0.7c0,0,0,0,0.1-0.1c0.9-1.4,2-2.8,3.2-4c0.1-0.1,0.1-0.1,0.2-0.2
		c0.2-0.2,0.3-0.3,0.4-0.5c0.1-0.2,0.2-0.4,0.1-0.6c-0.1-0.3-0.3-0.5-0.6-0.7c-0.1-0.1-0.2-0.1-0.3-0.1s-0.2,0-0.3,0.1
		c-0.2,0.2-0.4,0.3-0.6,0.5c-1.1,1-2.3,1.9-3.5,2.7s-2.5,1.5-3.9,2c-0.6,0.2-1.2,0.5-1.9,0.7c-0.1,0-0.2,0-0.3,0s-0.3,0-0.4,0
		s-0.3,0-0.4-0.1s-0.1-0.1,0-0.2c0.4-0.8,0.9-1.4,1.6-1.9s1.4-1,2.2-1.4s1.6-0.7,2.4-0.9c0.5-0.2,1-0.2,1.3-0.2s0.6,0,0.9,0
		c0.2,0,0.5,0.1,0.8,0.1c0.1,0,0.1-0.1,0.2-0.2c0-0.1,0-0.3,0-0.5s-0.2-0.3-0.4-0.5c-0.4-0.3-0.8-0.5-1.3-0.5
		c-0.5-0.1-0.9-0.1-1.4,0c-1.3,0.1-2.4,0.5-3.6,1.1s-2,1.2-2.6,2s-0.9,1.3-1,1.7c-0.2,0.4-0.2,0.8-0.1,1.3s0.3,0.8,0.7,1.2
		c0.3,0.3,0.7,0.5,1.2,0.5c0.6,0,1.2-0.1,1.8-0.2c0.9-0.3,1.8-0.7,2.7-1.1c0.3-0.2,0.6-0.3,0.9-0.4c0,0,0,0,0.1,0c0,0,0,0,0.1,0
		s0.1,0,0.1,0s0,0,0.1,0.1s0,0,0,0.1c-0.1,0.2-0.1,0.3-0.1,0.5c-0.1,0.2-0.2,0.5-0.2,0.7c-0.1,0.4-0.1,0.8,0.1,1.3
		c0.2,0.4,0.4,0.8,0.8,1c0.3,0.2,0.6,0.3,0.9,0.3c0.2,0,0.5,0,0.7-0.1s0.5-0.1,0.7-0.2c0,0,0,0,0.1,0c0.2-0.1,1-0.6,2.2-1.4
		c0.9-0.6,2.3-1.7,4.2-3.2c0,0,0,0.1-0.1,0.1c-0.2,0.5-0.4,1-0.4,1.6c0,0.7,0.2,1.3,0.7,1.8c0.3,0.4,0.7,0.6,1.2,0.6
		c0.7,0.1,1.3,0,2-0.2c0.6-0.2,1.1-0.4,1.7-0.6c1.6-0.6,3.1-1.2,4.5-2.1c0.7-0.4,1.5-0.9,2.2-1.4c-0.1,0.2-0.2,0.4-0.4,0.6
		c-0.2,0.3-0.3,0.7-0.4,1.1c-0.1,0.4,0,0.9,0.2,1.3c0.2,0.4,0.4,0.8,0.8,1c0.4,0.3,0.8,0.4,1.3,0.4s1.3-0.2,2.4-0.5s2.3-0.8,3.6-1.4
		s2.6-1.1,3.8-1.8c0.4-0.2,0.7-0.4,1.1-0.6c-0.3,0.5-0.7,0.9-1,1.4c-0.4,0.5-0.7,1-1,1.5c-0.4,0.6-0.3,1.2,0.2,1.8
		c0.1,0.1,0.2,0.2,0.4,0.3c0.2,0,0.3,0,0.5-0.1c0.1,0,0.1-0.1,0.2-0.1c0.5-0.3,0.9-0.7,1.4-1.1c2.1-1.7,4.3-3.2,6.6-4.6
		c0.8-0.5,1.6-0.9,2.5-1.2c0.1,0,0.1,0,0.2,0s0.1,0,0.2,0c0.1,0,0.1,0.1,0.2,0.1s0.1,0.1,0.1,0.1c0.1,0.2,0.1,0.4,0,0.6
		c-0.1,0.3-0.2,0.6-0.3,0.8c-0.1,0.3-0.2,0.7-0.4,1.1c-0.2,0.6-0.1,1.2,0.2,1.7s0.7,0.6,1.2,0.4c0.4-0.2,0.7-0.3,1.1-0.5
		c1.6-1.2,3-2.1,4-2.8c-0.2,0.5-0.4,1.1-0.4,1.8c0,0.2,0,0.4,0.1,0.6c0.2,0.6,0.5,1.2,0.9,1.7c0.4,0.4,0.8,0.6,1.3,0.7
		c0.9,0.2,1.8,0.1,2.5-0.2h0.1c0.9-0.3,1.8-0.7,2.6-1.2c1-0.6,2-1.3,3-1.9c0.4-0.2,0.8-0.5,1.2-0.8c0.2-0.1,0.3-0.2,0.5-0.3
		s0.3-0.2,0.4-0.3c0,0,0,0,0.1,0s0.1,0,0.1,0c0.2,0,0.2,0.2,0.1,0.3c-0.1,0.2-0.2,0.3-0.3,0.5c-0.7,1.1-1.3,2.2-2,3.3
		c-0.4,0.6-0.9,1-1.5,1.3c-1.7,1-3.4,2-5.1,3.1c-1.9,1.2-3.6,2.5-5.2,4.1c-0.7,0.7-1.4,1.5-2,2.3c-0.4,0.5-0.7,1.1-0.9,1.8
		c-0.1,0.2-0.1,0.3-0.1,0.6c0,0.3,0,0.4,0.1,0.6c0.2,0.6,0.5,1.1,0.9,1.5s0.9,0.5,1.5,0.4c0.4-0.1,0.8-0.2,1.1-0.3
		c0.9-0.4,1.8-0.9,2.5-1.5c1.4-1.2,2.8-2.4,4-3.8c1.9-2.1,3.6-4.4,5.2-6.8c0.4-0.7,0.9-1.1,1.6-1.4c0.2-0.1,0.5-0.2,0.7-0.4
		c0.1-0.1,0.3-0.2,0.4-0.2c0.1-0.1,0.4-0.2,0.9-0.4c0.9-0.5,2.1-1.1,3.6-2s2.8-1.8,4-2.6s1.9-1.5,2.1-1.9
		C203.9,44.3,203.6,44.1,203,44.1z M186.5,55.3c-0.1,0.1-0.2,0.2-0.3,0.4s-0.2,0.3-0.3,0.4c-0.1,0.1-0.2,0.2-0.2,0.3
		c-0.1,0.2-0.3,0.4-0.4,0.6c-0.4,0.5-0.8,1-1.2,1.6c-1.3,1.5-2.7,2.9-4.3,4.2c-0.6,0.4-1.1,0.8-1.7,1.2H178c-0.1,0-0.2,0.1-0.3,0.2
		s-0.3,0.2-0.4,0.2c-0.1,0.1-0.2,0.1-0.3,0.1s-0.1,0-0.1-0.1s0.1-0.3,0.2-0.5c0.1-0.2,0.2-0.3,0.3-0.5c0.1-0.1,0.1-0.1,0.1-0.2
		c0.7-1,1.6-2.1,2.6-3c1.1-1,2.1-1.9,3.3-2.8c1.2-0.9,2.3-1.6,3.3-2.2C186.6,55.1,186.6,55.2,186.5,55.3z"/>
</g>
<g>
	<path class="st0" d="M234.4,41.8c-0.6-0.4-1.1-0.6-1.8-0.8c-0.6-0.2-1.2-0.4-1.8-0.5s-1.2-0.3-1.9-0.3c-0.1,0-0.2-0.1-0.3-0.1l0,0
		l0,0c0,0,0,0,0-0.1s0,0,0-0.1c0,0,0.1,0,0.1-0.1c0.1-0.1,0.2-0.2,0.4-0.3c0.9-0.3,1.7-0.7,2.6-1c0.9-0.4,1.8-0.7,2.8-1.1
		c1.3-0.5,2.6-1.2,3.9-1.9c0.6-0.4,1.1-0.8,1.6-1.2c0.9-0.8,0.9-1.7,0.3-2.7c-0.4-0.6-0.9-1-1.5-1.1c-0.8-0.2-1.6-0.3-2.4-0.4
		c-0.5,0-1,0-1.5,0c-0.1,0-0.2,0-0.3,0c-2,0-4,0.1-6.1,0.5c-0.7,0.2-1.4,0.4-2.1,0.6c-0.1,0-0.2,0.1-0.2,0.1
		c-0.2,0.1-0.3,0.2-0.4,0.4c-0.1,0.2-0.1,0.4,0,0.6s0.2,0.4,0.4,0.5s0.4,0.1,0.6,0.1c0.3-0.1,0.6-0.2,0.9-0.2
		c0.6-0.2,1.2-0.3,1.8-0.5c1.4-0.3,2.9-0.4,4.3-0.5c1.4,0,2.8,0,4.2,0.2c0.4,0,0.7,0.1,1,0.3h0.1c0,0,0,0,0.1,0.1s0,0.1,0,0.2
		s0,0.1,0,0.1c-0.1,0.2-0.3,0.4-0.6,0.6c-1,0.8-2.1,1.4-3.2,1.8c-1.6,0.7-3.1,1.4-4.7,2c-0.8,0.3-1.5,0.6-2.2,0.9
		c-0.7,0.2-1.3,0.5-2,0.8c-0.5,0.2-1,0.4-1.5,0.7c-0.1,0-0.2,0.1-0.2,0.2s-0.1,0.2-0.1,0.3c-0.1,0.3-0.1,0.7,0.1,1s0.4,0.5,0.7,0.6
		s0.6,0.1,1,0.2c0.6,0.1,1.2,0.1,1.9,0.2c0.3,0,0.7,0.1,1.1,0.1c0.1,0,0.3,0,0.5,0.1c0.8,0.2,1.7,0.4,2.7,0.6
		c0.9,0.2,1.6,0.6,2.3,1.1c0.3,0.2,0.5,0.4,0.7,0.7s0.3,0.6,0.1,0.9c-0.1,0.2-0.1,0.4-0.2,0.6c-0.6,1-1.3,1.8-2.2,2.4
		c-0.9,0.6-1.8,1.1-2.7,1.5s-1.9,0.8-2.9,1.1c0,0,0,0-0.1,0c-0.3,0.1-0.5,0.2-0.6,0.2s-0.2,0-0.3-0.1s-0.2-0.2-0.3-0.5
		c0,0-0.1-0.1-0.1-0.2c-0.4-0.7-0.9-1.3-1.6-1.7c-0.9-0.7-1.9-1.2-3-1.4c-1.1-0.3-2.3-0.3-3.5,0c-1.2,0.2-2.4,0.8-3.5,1.6
		c-0.3,0.2-0.6,0.5-0.9,0.9c-0.2,0.2-0.3,0.5-0.3,0.8c0,0.6,0.1,1.2,0.3,1.6c0.2,0.5,0.6,0.8,1.2,1.2c0.6,0.3,1.2,0.5,1.8,0.7
		s1.2,0.2,1.9,0.2c2.4,0.1,4.7-0.1,7.1-0.5c2.2-0.5,4.4-1.2,6.4-2.2c1.1-0.5,2.1-1.2,3-2.1c0.6-0.5,1-1.1,1.3-1.8
		c0.5-1.4,0.3-2.7-0.6-3.9C235.4,42.6,235,42.2,234.4,41.8z M225.6,51c-0.1,0.1-0.1,0.2-0.2,0.2h-0.1h-0.1c-2.8,0.6-5.5,0.8-8.3,0.5
		c-0.1,0-0.2,0-0.3,0s-0.2-0.1-0.4-0.1c0,0,0,0-0.1,0s-0.2,0-0.3-0.1c-0.1,0-0.2-0.1-0.4-0.1c-0.2-0.1-0.4-0.2-0.5-0.3
		s-0.2-0.2-0.1-0.3l0,0c0.1-0.2,0.3-0.4,0.5-0.6c1.5-1.2,3.2-1.9,5.1-1.9c2.2,0,3.9,0.8,5.2,2.4C225.7,50.8,225.7,50.9,225.6,51z"/>
	<path class="st0" d="M263,28.9c-0.6-0.4-1.2-0.5-2-0.3c-0.1,0-0.2,0-0.3,0.1c-0.1,0-0.2,0.1-0.2,0.1c-0.8,0.2-1.5,0.5-2.2,0.9
		s-1.4,0.8-2,1.3c-3.6,2.7-6.3,6.1-8.1,10.3c-0.1,0.3-0.2,0.6-0.3,1c0,0.3,0.1,0.6,0.3,0.9c0,0,0.1,0.1,0.2,0.1s0.2,0,0.2,0
		s0.1,0,0.1-0.1c0,0,0.1-0.1,0.1-0.2c0.1-0.2,0.2-0.3,0.3-0.5c1-2.1,2.2-4,3.7-5.7s3.2-3.2,5.1-4.5c0.9-0.6,1.8-1.1,2.8-1.5
		c0.5-0.2,1.1-0.3,1.6-0.4c0.1,0,0.2,0,0.3,0c0.1,0,0.3,0,0.4,0.2c0.1,0.1,0.2,0.3,0.2,0.5c0,0.8-0.1,1.6-0.5,2.3
		c-0.4,1-0.9,2-1.5,3c-0.6,0.9-1.2,1.8-1.9,2.7c-1.7,2.1-3.6,4.1-5.7,5.8s-4.3,3.2-6.7,4.6c-1.1,0.6-2.3,1.1-3.5,1.5
		c-0.9,0.3-1.8,0.4-2.8,0.3c-0.4,0-0.7-0.1-0.9-0.3s-0.3-0.5-0.3-1c0-0.3,0-0.5,0.1-0.8c0.1-0.9,0.4-1.7,0.8-2.5
		c0.9-2,2.1-3.9,3.6-5.5c2.2-2.6,4.6-5,7.2-7.2c0.9-0.7,1.8-1.4,2.7-2.1s1.9-1.2,2.9-1.7c0.1,0,0.1-0.1,0.2-0.1L257,30
		c0.1-0.1,0.1-0.2,0.2-0.3s0-0.3-0.1-0.4c-0.3-0.4-0.6-0.6-1-0.5c-0.1,0-0.2,0.1-0.2,0.1c-0.5,0.1-1,0.4-1.4,0.6
		c-1.1,0.7-2.2,1.4-3.2,2.1c-3,2.3-5.8,5-8.2,7.9c-1.3,1.5-2.5,3.2-3.4,5c-0.6,1.2-1.1,2.4-1.3,3.8c-0.2,1.2,0.1,2.4,0.8,3.4
		c0.5,0.8,1.2,1.2,2.1,1.3c0.2,0,0.4,0,0.6,0c0.1,0,0.2,0,0.2,0c0.8,0,1.6-0.1,2.4-0.4c1.2-0.4,2.4-0.9,3.5-1.5
		c4.5-2.5,8.4-5.7,11.8-9.6c0.7-0.8,1.4-1.7,2-2.5c0.6-0.9,1.2-1.8,1.6-2.8c0.5-1,0.9-2.1,1.1-3.2c0.1-0.8,0.1-1.6-0.3-2.3
		C263.9,29.7,263.5,29.3,263,28.9z"/>
	<path class="st0" d="M330.6,44.2c0.1,0,0.1-0.1,0.2-0.1s0.2,0,0.1,0.1c0,0.1-0.1,0.3-0.1,0.4c-0.1,0.2-0.1,0.4-0.2,0.7
		c-0.1,0.2-0.1,0.4,0,0.6c0.1,0.3,0.2,0.6,0.4,0.9c0.2,0.3,0.4,0.5,0.7,0.7c0.2,0.1,0.4,0.1,0.6,0.1h0.1c0.1,0,0.2,0,0.2-0.1
		s0.1-0.2,0-0.3v-0.1c0-0.1-0.1-0.2-0.1-0.2c-0.4-0.4-0.5-0.8-0.1-1.2c0.4-0.5,0.8-1.1,1.1-1.6c0.1-0.2,0.2-0.3,0.4-0.5
		c0,0,0.1-0.1,0.1-0.2c0.1-0.2,0.3-0.4,0.4-0.6c0.1-0.3,0.1-0.6,0-0.9c-0.2-0.4-0.4-0.7-0.8-0.9c-0.3-0.2-0.7-0.2-1.1,0h-0.1
		c-0.4,0.2-0.7,0.3-1.1,0.5c-1.2,0.8-2.5,1.6-3.7,2.4c-0.3,0.2-0.7,0.5-1,0.7c-0.2,0.2-0.4,0.3-0.6,0.5l0,0c0,0,0,0-0.1,0h-0.1
		c-0.1,0-0.2,0-0.1-0.2s0.3-0.4,0.4-0.7c0.1-0.2,0.2-0.4,0.4-0.6c0.1-0.2,0.3-0.5,0.5-0.7c0.4-0.7,0.8-1.3,1.2-1.9
		c0.1-0.2,0.2-0.5,0.1-0.7s-0.3-0.4-0.5-0.6c0,0-0.1,0-0.2-0.1c-0.1,0-0.1,0-0.2,0c-0.2,0.1-0.3,0.2-0.4,0.4c-1,1.4-2,2.7-3,4.1
		c-0.1,0-0.1,0-0.2,0c-0.3,0.1-1.3,0.8-3,2c-1.6,1.3-3.9,2.6-6.8,4c-0.1,0-0.1,0-0.2,0s-0.1-0.1-0.1-0.2c0.1-0.3,0.2-0.5,0.3-0.8
		c0.1-0.2,0.3-0.5,0.4-0.7c0,0,0,0,0-0.1c0.9-1.4,2-2.8,3.2-4c0.1-0.1,0.1-0.1,0.2-0.2c0.2-0.2,0.3-0.3,0.5-0.5
		c0.1-0.2,0.2-0.4,0.1-0.6c-0.1-0.3-0.3-0.5-0.5-0.7c-0.1-0.1-0.2-0.1-0.3-0.1c-0.1,0-0.2,0-0.3,0.1c-0.2,0.2-0.4,0.3-0.6,0.5
		c-1.1,1-2.3,1.9-3.5,2.7s-2.5,1.5-3.9,2c-0.6,0.2-1.2,0.5-1.9,0.7c0,0-0.1,0-0.3,0s-0.3,0-0.4,0s-0.3,0-0.4-0.1s-0.1-0.1,0-0.2
		c0.4-0.8,0.9-1.4,1.6-1.9s1.4-1,2.2-1.4s1.6-0.7,2.4-0.9c0.5-0.2,1-0.2,1.3-0.2s0.6,0,0.9,0c0.2,0,0.5,0.1,0.8,0.1
		c0.1,0,0.1-0.1,0.2-0.2s0-0.3,0-0.5s-0.2-0.3-0.4-0.5c-0.4-0.3-0.8-0.5-1.3-0.5c-0.5-0.1-0.9-0.1-1.4,0c-1.3,0.1-2.4,0.5-3.5,1.1
		c-0.9,0.5-1.6,1-2.2,1.5c-0.4,0.2-1,0.5-1.6,0.8c-1.8,0.8-3.9,1.6-6.4,2.3c-2.6,0.6-4.4,1-5.3,1c-0.4,0-0.7,0-1-0.1
		c-0.4-0.1-0.5-0.3-0.5-0.7c0-0.3,0.2-0.7,0.6-1.3c0.1-0.2,0.4-0.5,0.6-0.8c0.6-0.6,1.1-0.9,1.3-1h0.1c0.3,0.2,0.7,0.3,1.2,0.3
		s1.1-0.1,1.9-0.2c0.6-0.2,1.1-0.3,1.5-0.5c0.5-0.2,1.1-0.5,1.6-0.8c0.4-0.3,0.5-0.6,0.5-1v-0.1c0-0.3-0.1-0.7-0.5-1.1
		c-0.2-0.3-0.5-0.4-0.7-0.5c-0.3-0.1-0.5-0.2-0.8-0.2c-1.2,0-2.6,0.5-4.3,1.3c-0.8,0.4-1.5,1-2.3,1.6c-0.3,0.2-0.5,0.5-0.7,0.7
		c-0.3,0.1-0.6,0.2-1,0.3c-1,0.4-2.1,0.9-3.3,1.5s-2.4,1.2-3.4,1.8s-1.7,1-2,1.2c-0.1,0.1-0.3,0.1-0.4,0.2s-0.3,0-0.4,0
		s-0.2-0.1-0.2-0.1c0-0.1,0-0.2,0-0.3s0-0.2,0-0.2c0.2-0.5,0.4-1,0.7-1.5c0.1-0.3,0.3-0.6,0.4-1c0-0.1,0.1-0.1,0.1-0.2
		c0.2-0.5,0.4-0.9,0.6-1.4c0.2-0.6-0.1-1.1-0.7-1.6c-0.4-0.3-0.7-0.3-0.9-0.1c-0.4,0.4-0.8,0.8-1.2,1.3c-1.5,1.6-3.2,2.9-5.2,4
		c-0.7,0.4-1.5,0.7-2.4,0.8c-0.1,0-0.3,0-0.5-0.2c-0.2-0.1-0.3-0.3-0.3-0.5c0-0.6,0.2-1.1,0.5-1.5s0.6-0.8,1-1.2
		c0.2-0.2,0.5-0.5,0.6-0.7c0.2-0.2,0.4-0.5,0.5-0.8c0-0.2,0-0.3-0.2-0.5s-0.4-0.4-0.6-0.5c-0.1,0-0.3,0-0.5,0.1s-0.5,0.2-0.8,0.4
		c-0.3,0.1-0.4,0.2-0.5,0.3s-0.2,0.2-0.3,0.3c-0.3,0.3-0.6,0.7-0.9,1s-0.4,0.8-0.4,1.3c0,1,0.3,2,1.1,2.9c0.7,0.8,1.5,1.2,2.5,1.2
		c0.8-0.1,1.5-0.3,2.1-0.6c0.4-0.2,0.8-0.4,1.1-0.7c0.5-0.2,0.9-0.5,1.4-0.8h0.1c0,0,0.1,0,0.2,0.1c0,0,0.1,0,0.1,0.1s0,0.1,0,0.1
		v0.1c-0.2,0.5-0.5,1-0.8,1.6c-0.2,0.5-0.5,1-0.7,1.5c-0.3,0.5-0.6,1-1.1,1.3c-1.2,0.9-2.3,1.8-3.4,2.8c-1.7,1.4-3.2,2.9-4.5,4.6
		c-0.6,0.8-1.2,1.7-1.8,2.6c0,0-0.1,0.1-0.1,0.2c-0.4,0.5-0.6,1.2-0.7,1.9s0.2,1.3,0.7,1.9c0.3,0.4,0.7,0.6,1,0.7s0.7,0.1,1-0.1
		c0.4-0.2,0.8-0.5,1.2-0.8c0.6-0.5,1.1-1,1.6-1.6c1-1.3,2-2.6,3-3.9c0.6-0.9,1.2-1.8,1.8-2.8s1.1-1.9,1.6-3s1.3-2,2.4-2.7
		c2.2-1.5,4.5-2.9,6.8-4.3c1.2-0.7,2.5-1.4,3.7-2.1c-0.1,0.2-0.1,0.5-0.1,0.8l0,0c0,0.5,0.2,1.1,0.5,1.6c0.2,0.3,0.4,0.6,0.7,0.8
		c0.5,0.4,1.3,0.7,2.3,0.7h0.1c0.6,0,1.3-0.1,2.1-0.2c0.2,0,0.9-0.2,2.2-0.5c0.9-0.3,1.8-0.6,2.6-0.9c1.6-0.6,3-1.2,4.3-2l0,0
		c-0.2,0.4-0.2,0.8-0.1,1.3s0.3,0.8,0.6,1.2c0.3,0.3,0.7,0.5,1.2,0.5c0.6,0,1.2-0.1,1.8-0.2c0.9-0.3,1.8-0.7,2.7-1.1
		c0.3-0.2,0.6-0.3,0.9-0.4l0,0c0,0,0,0,0.1,0s0.1,0,0.1,0s0,0,0,0.1s0,0,0,0.1c0,0.2-0.1,0.3-0.1,0.5c-0.1,0.2-0.2,0.5-0.2,0.7
		c-0.1,0.4-0.1,0.8,0.1,1.3s0.4,0.8,0.8,1c0.3,0.2,0.6,0.3,0.9,0.3c0.2,0,0.5,0,0.7-0.1s0.5-0.1,0.7-0.2l0,0c0.2-0.1,1-0.6,2.2-1.4
		c0.9-0.6,2.2-1.7,4.1-3.1c-0.8,1-1.5,2.1-2.2,3.1c-0.2,0.3-0.4,0.6-0.6,0.9c-0.2,0.4-0.1,0.8,0.2,1.2c0.1,0.2,0.3,0.3,0.5,0.3
		s0.4,0,0.5-0.1c0.5-0.5,1-0.9,1.5-1.4c2.6-2.5,5.4-4.7,8.3-6.7C330.3,44.4,330.5,44.3,330.6,44.2z M296.6,43.2
		c1.4-0.6,2.3-0.9,2.8-0.9c0.1,0,0.2,0,0.2,0.1s-0.1,0.3-0.4,0.5c-0.2,0.2-0.6,0.4-1.2,0.6c-1.1,0.4-1.9,0.6-2.3,0.6
		c-0.1,0-0.1,0-0.1-0.1C295.5,43.8,295.9,43.5,296.6,43.2z M268.3,64.9C268.3,64.9,268.3,65,268.3,64.9c-0.1,0.1-0.2,0.2-0.3,0.3
		s-0.3,0.1-0.4,0.1c0,0,0,0-0.1-0.1s-0.1,0-0.1-0.1V65c0-0.1,0-0.1,0-0.2c0-0.2,0.1-0.5,0.2-0.6c0.1-0.2,0.2-0.3,0.3-0.4
		c0.8-1.1,1.6-2.2,2.4-3.3c0.5-0.6,1.1-1.2,1.7-1.7c0.2-0.2,0.5-0.4,0.7-0.7c0.1-0.1,0.9-0.9,2.2-2.2
		C272.3,60,270.1,63.1,268.3,64.9z"/>
	<path class="st0" d="M346.4,44.2c-1,0.3-2.3,0.9-3.8,1.6c-1.1,0.5-2.1,1-3.1,1.4s-1.8,0.6-2.4,0.7s-0.8-0.2-0.6-0.9
		c0,0,0-0.1,0-0.2c0.2-0.8,0.5-1.7,0.8-2.5c0.7-1.8,1.9-3,3.7-3.7c0.2-0.1,0.4-0.1,0.6-0.2c0.1,0,0.3-0.1,0.4-0.1s0.2-0.1,0.2-0.3
		s0-0.3,0-0.4c-0.1-0.2-0.3-0.4-0.6-0.5c-0.4-0.2-0.8-0.2-1.2-0.1c-1.7,0.4-3,1.4-3.9,2.9c-0.5,0.9-0.9,1.8-1.1,2.8
		c-0.3,1.1-0.6,2.2-0.8,3.3c-0.1,0.3-0.2,0.7-0.4,0.9s-0.4,0.5-0.8,0.6c-0.6,0.3-1.1,0.6-1.7,0.9c0,0,0,0-0.1,0
		c-0.2,0.1-0.3,0.2-0.5,0.3c-1.1,0.6-2.2,1.3-3.3,2c-0.5,0.4-1.1,0.8-1.6,1.2c-0.2,0.2-0.3,0.6-0.2,1c0.2,0.9,0.8,1.4,1.6,1.5
		c0.2,0,0.4,0.1,0.7,0.1c0.1,0,0.2,0,0.3,0c0.1,0,0.1,0,0.2,0c0.6,0,1.2-0.1,1.8-0.2c1-0.3,1.8-0.7,2.5-1.4s1.2-1.4,1.6-2.4
		c0.2-0.4,0.3-0.8,0.4-1.2c0-0.1,0.1-0.2,0.1-0.3c0.1-0.3,0.2-0.5,0.5-0.6c0.1,0,0.2-0.1,0.4-0.2c0.5-0.3,0.9-0.5,1.4-0.8
		c0.4-0.2,1.3-0.6,2.7-1.3c1.4-0.7,2.8-1.4,4.1-2s2.2-1.2,2.5-1.4C347,44.3,346.8,44.1,346.4,44.2z M332.8,52.6c0,0.1,0,0.1,0,0.2
		c-0.6,0.8-1.3,1.4-2.3,1.8h-0.1c-0.2,0.1-0.5,0.2-0.8,0.3s-0.5,0.1-0.8,0.1l0,0h-0.1l0,0c0,0,0,0,0-0.1s0-0.1,0-0.1l0,0
		c0.1-0.1,0.2-0.2,0.3-0.2c0.8-0.5,1.6-1,2.5-1.4c0.4-0.2,0.7-0.4,1.1-0.7c0.1,0,0.1,0,0.2,0s0.1,0,0.1,0.1
		C332.8,52.5,332.8,52.6,332.8,52.6z"/>
</g>
</svg>
